<?xml version="1.0" encoding="UTF-8" standalone="no"?>
<svg
   height="24px"
   viewBox="0 -960 960 960"
   width="24px"
   fill="#1f1f1f"
   version="1.1"
   id="svg1"
   sodipodi:docname="calendar_today_24dp_1F1F1F_FILL0_wght400_GRAD0_opsz24.svg"
   xml:space="preserve"
   inkscape:version="1.4 (e7c3feb1, 2024-10-09)"
   xmlns:inkscape="http://www.inkscape.org/namespaces/inkscape"
   xmlns:sodipodi="http://sodipodi.sourceforge.net/DTD/sodipodi-0.dtd"
   xmlns="http://www.w3.org/2000/svg"
   xmlns:svg="http://www.w3.org/2000/svg"><defs
     id="defs1" /><sodipodi:namedview
     id="namedview1"
     pagecolor="#ffffff"
     bordercolor="#666666"
     borderopacity="1.0"
     inkscape:showpageshadow="2"
     inkscape:pageopacity="0.0"
     inkscape:pagecheckerboard="0"
     inkscape:deskcolor="#d1d1d1"
     inkscape:zoom="11.452787"
     inkscape:cx="14.319659"
     inkscape:cy="10.827059"
     inkscape:window-width="1120"
     inkscape:window-height="761"
     inkscape:window-x="0"
     inkscape:window-y="25"
     inkscape:window-maximized="0"
     inkscape:current-layer="svg1" /><path
     d="M200-80q-33 0-56.5-23.5T120-160v-560q0-33 23.5-56.5T200-800h40v-80h80v80h320v-80h80v80h40q33 0 56.5 23.5T840-720v560q0 33-23.5 56.5T760-80H200Zm0-80h560v-400H200v400Zm0-480h560v-80H200v80Zm0 0v-80 80Z"
     id="path1" /><g
     style="fill:#1f1f1f"
     id="g1"
     transform="matrix(0.44118405,0,0,0.44118405,268.23166,-145.99067)"><path
       d="M 160,-80 Q 143,-80 131.5,-91.5 120,-103 120,-120 v -200 q 0,-33 23.5,-56.5 Q 167,-400 200,-400 v -160 q 0,-33 23.5,-56.5 Q 247,-640 280,-640 h 160 v -58 q -18,-12 -29,-29 -11,-17 -11,-41 0,-15 6,-29.5 6,-14.5 18,-26.5 l 56,-56 56,56 q 12,12 18,26.5 6,14.5 6,29.5 0,24 -11,41 -11,17 -29,29 v 58 h 160 q 33,0 56.5,23.5 23.5,23.5 23.5,56.5 v 160 q 33,0 56.5,23.5 23.5,23.5 23.5,56.5 v 200 q 0,17 -11.5,28.5 Q 817,-80 800,-80 Z M 280,-400 H 680 V -560 H 280 Z m -80,240 H 760 V -320 H 200 Z m 80,-240 h 400 z m -80,240 H 760 Z M 760,-400 H 200 Z"
       id="path1-0" /></g></svg>
